<?xml version="1.0" encoding="UTF-8"?>
<!-- Generated by Pixelmator Pro 3.2.3 -->
<svg width="1080" height="1080" viewBox="0 0 1080 1080" xmlns="http://www.w3.org/2000/svg" xmlns:xlink="http://www.w3.org/1999/xlink">
    <path id="Line" fill="none" stroke="#d5d5d5" stroke-width="51" stroke-linecap="round" stroke-linejoin="round" d="M 130.297836 169.886108 L 945.38501 174.49353"/>
    <path id="Line-copy" fill="none" stroke="#d5d5d5" stroke-width="51" stroke-linecap="round" stroke-linejoin="round" d="M 131.182709 273.839417 L 945.000061 283.997925"/>
    <path id="Line-copy-2" fill="none" stroke="#d5d5d5" stroke-width="51" stroke-linecap="round" stroke-linejoin="round" d="M 249 390.999756 L 945 394.00177"/>
    <path id="Line-copy-3" fill="none" stroke="#d5d5d5" stroke-width="51" stroke-linecap="round" stroke-linejoin="round" d="M 380.682648 502.261719 L 941.049072 499.000732"/>
    <path id="Line-copy-4" fill="none" stroke="#d5d5d5" stroke-width="51" stroke-linecap="round" stroke-linejoin="round" d="M 481.01828 612.424194 L 938.00116 613.116943"/>
    <path id="Line-copy-5" fill="none" stroke="#d5d5d5" stroke-width="51" stroke-linecap="round" stroke-linejoin="round" d="M 579 723 L 934.677917 723.994995"/>
    <path id="Rounded-Rectangle" fill="none" stroke="#d5d5d5" stroke-width="51" stroke-linecap="round" stroke-linejoin="round" d="M 26 964 C 26 1018.123901 69.876099 1062 124 1062 L 956 1062 C 1010.123901 1062 1054 1018.123901 1054 964 L 1054 121 C 1054 66.876099 1010.123901 23 956 23 L 124 23 C 69.876099 23 26 66.876099 26 121 Z"/>
    <path id="path1" fill="none" stroke="#d5d5d5" stroke-width="10" stroke-linecap="round" stroke-linejoin="round" d="M 1182 683 C 1182 705.091431 1199.908569 723 1222 723 L 1399 723 C 1421.091431 723 1439 705.091431 1439 683 L 1439 506 C 1439 483.90863 1421.091431 466 1399 466 L 1222 466 C 1199.908569 466 1182 483.90863 1182 506 Z"/>
    <path id="Line-copy-8" fill="none" stroke="#d5d5d5" stroke-width="8" stroke-linecap="round" stroke-linejoin="round" visibility="hidden" d="M 722 906 L 907 904 L 722 906 Z M 666 821 L 907 821 L 666 821 Z M 581.556641 759.115234 L 907 759 L 581.556641 759.115234 Z M 907 691 L 537 682.914063 L 907 691 Z M 907 627 L 464 624 L 907 627 Z M 384 566 L 907 566 L 384 566 Z M 907 496 L 323 492 L 907 496 Z M 907 417 L 241 415 L 907 417 Z M 197 345 L 907 345 L 197 345 Z M 167 273 L 907 273 L 167 273 Z M 167 208 L 907 208 L 167 208 Z M 167 133 L 907 133 L 167 133 Z"/>
    <g id="Group">
        <path id="Line-copy-11" fill="none" stroke="#d5d5d5" stroke-width="8" stroke-linecap="round" stroke-linejoin="round" visibility="hidden" d="M 462 663 L 135.000122 336.000122"/>
        <path id="Line-copy-10" fill="none" stroke="#d5d5d5" stroke-width="8" stroke-linecap="round" stroke-linejoin="round" visibility="hidden" d="M 462 663 L 135 663"/>
        <path id="Line-copy-9" fill="none" stroke="#d5d5d5" stroke-width="8" stroke-linecap="round" stroke-linejoin="round" visibility="hidden" d="M 135 336 L 135 663"/>
        <path id="path2" fill="none" stroke="#d5d5d5" stroke-width="8" stroke-linecap="round" stroke-linejoin="round" visibility="hidden" d="M 299 500 L 135 663"/>
        <path id="Line-copy-7" fill="none" stroke="#d5d5d5" stroke-width="8" stroke-linecap="round" stroke-linejoin="round" visibility="hidden" d="M 299 500 L 299.001129 662.998901"/>
        <path id="Line-copy-6" fill="none" stroke="#d5d5d5" stroke-width="8" stroke-linecap="round" stroke-linejoin="round" visibility="hidden" d="M 299 500 L 135.999435 500.001099"/>
    </g>
    <g id="g1">
        <path id="path3" fill="none" stroke="#d5d5d5" stroke-width="8" stroke-linecap="round" stroke-linejoin="round" visibility="hidden" d="M 135 1041 L 277 891"/>
        <path id="path4" fill="none" stroke="#d5d5d5" stroke-width="8" stroke-linecap="round" stroke-linejoin="round" visibility="hidden" d="M 135 749 L 277 891"/>
        <path id="path5" fill="none" stroke="#d5d5d5" stroke-width="8" stroke-linecap="round" stroke-linejoin="round" visibility="hidden" d="M 135 749 L 135.002487 1041.000854"/>
        <path id="path6" fill="none" stroke="#d5d5d5" stroke-width="8" stroke-linecap="round" stroke-linejoin="round" visibility="hidden" d="M 135.000275 891.000244 L 277.000061 891.002136"/>
    </g>
    <g id="Group-copy-4">
        <path id="path7" fill="none" stroke="#d5d5d5" stroke-width="8" stroke-linecap="round" stroke-linejoin="round" visibility="hidden" d="M 462 1067 L 312 925"/>
        <path id="path8" fill="none" stroke="#d5d5d5" stroke-width="8" stroke-linecap="round" stroke-linejoin="round" visibility="hidden" d="M 170 1067 L 312 925"/>
        <path id="path9" fill="none" stroke="#d5d5d5" stroke-width="8" stroke-linecap="round" stroke-linejoin="round" visibility="hidden" d="M 170 1067 L 462.000793 1066.997559"/>
        <path id="path10" fill="none" stroke="#d5d5d5" stroke-width="8" stroke-linecap="round" stroke-linejoin="round" visibility="hidden" d="M 312.000275 1066.999756 L 312.002136 924.999939"/>
    </g>
    <g id="Group-copy-2">
        <path id="path11" fill="none" stroke="#d5d5d5" stroke-width="8" stroke-linecap="round" stroke-linejoin="round" visibility="hidden" d="M 870 1067 L 543.000122 740.000122"/>
        <path id="path12" fill="none" stroke="#d5d5d5" stroke-width="8" stroke-linecap="round" stroke-linejoin="round" visibility="hidden" d="M 870 1067 L 543 1067"/>
        <path id="path13" fill="none" stroke="#d5d5d5" stroke-width="8" stroke-linecap="round" stroke-linejoin="round" visibility="hidden" d="M 543 740 L 543 1067"/>
        <path id="path14" fill="none" stroke="#d5d5d5" stroke-width="8" stroke-linecap="round" stroke-linejoin="round" visibility="hidden" d="M 707 904 L 543 1067"/>
        <path id="path15" fill="none" stroke="#d5d5d5" stroke-width="8" stroke-linecap="round" stroke-linejoin="round" visibility="hidden" d="M 707 904 L 707.001099 1066.998901"/>
        <path id="path16" fill="none" stroke="#d5d5d5" stroke-width="8" stroke-linecap="round" stroke-linejoin="round" visibility="hidden" d="M 707 904 L 543.999451 904.001099"/>
    </g>
    <g id="Group-copy-3">
        <path id="path17" fill="none" stroke="#d5d5d5" stroke-width="8" stroke-linecap="round" stroke-linejoin="round" visibility="hidden" d="M 166.5 713.5 L 493.499878 1040.499878"/>
        <path id="path18" fill="none" stroke="#d5d5d5" stroke-width="8" stroke-linecap="round" stroke-linejoin="round" visibility="hidden" d="M 166.5 713.5 L 493.5 713.5"/>
        <path id="path19" fill="none" stroke="#d5d5d5" stroke-width="8" stroke-linecap="round" stroke-linejoin="round" visibility="hidden" d="M 493.5 1040.5 L 493.5 713.5"/>
        <path id="path20" fill="none" stroke="#d5d5d5" stroke-width="8" stroke-linecap="round" stroke-linejoin="round" visibility="hidden" d="M 329.5 876.5 L 493.5 713.5"/>
        <path id="path21" fill="none" stroke="#d5d5d5" stroke-width="8" stroke-linecap="round" stroke-linejoin="round" visibility="hidden" d="M 329.5 876.5 L 329.498871 713.501099"/>
        <path id="path22" fill="none" stroke="#d5d5d5" stroke-width="8" stroke-linecap="round" stroke-linejoin="round" visibility="hidden" d="M 329.5 876.5 L 492.500549 876.498901"/>
    </g>
    <path id="Right-Triangle" fill="none" stroke="#d5d5d5" stroke-width="44" stroke-linecap="round" stroke-linejoin="round" d="M 132 946 L 728 946 L 132 350 Z"/>
    <path id="path23" fill="none" stroke="#d5d5d5" stroke-width="44" stroke-linecap="round" stroke-linejoin="round" d="M 1032 888.000061 L 1287.999878 888.000061"/>
    <path id="path24" fill="none" stroke="#d5d5d5" stroke-width="44" stroke-linecap="round" stroke-linejoin="round" d="M 428 1522 L 683.999878 1522"/>
    <g id="g2">
        <path id="path25" fill="#004d81" fill-rule="evenodd" stroke="none" d="M 478.471191 817.959961 C 483.351379 822.735413 491.178772 822.650513 495.954224 817.770325 L 987.200745 315.748047 C 991.976196 310.86792 991.891235 303.040466 987.011047 298.265015 L 903.602417 216.646667 C 898.722229 211.871277 890.894775 211.956177 886.119385 216.836365 L 394.872833 718.858643 C 390.097412 723.73877 390.182312 731.566223 395.0625 736.341675 Z"/>
        <path id="Triangle" fill="#004d81" fill-rule="evenodd" stroke="none" d="M 392.778351 725.151611 L 357.184479 856.717896 L 488.759064 821.920959 Z"/>
    </g>
    <path id="path26" fill="none" stroke="#d5d5d5" stroke-width="18" stroke-linecap="round" stroke-linejoin="round" d="M 1483 819.000061 L 1738.999878 819.000061"/>
</svg>
